<svg width="24" height="24" viewBox="0 0 24 24" fill="none" xmlns="http://www.w3.org/2000/svg">
<g clip-path="url(#clip0_6_373)">
<path d="M22.125 2.8125H21.75V2.0625C21.75 1.44216 21.2453 0.9375 20.625 0.9375C20.0047 0.9375 19.5 1.44216 19.5 2.0625V2.8125H4.5V2.0625C4.5 1.44216 3.99534 0.9375 3.375 0.9375C2.75466 0.9375 2.25 1.44216 2.25 2.0625V2.8125H1.875C0.841125 2.8125 0 3.65363 0 4.6875V21.1875C0 22.2214 0.841125 23.0625 1.875 23.0625H22.125C23.1589 23.0625 24 22.2214 24 21.1875V4.6875C24 3.65363 23.1589 2.8125 22.125 2.8125ZM20.25 2.0625C20.25 1.85573 20.4182 1.6875 20.625 1.6875C20.8318 1.6875 21 1.85573 21 2.0625V3.18661C21 3.18694 21 3.18722 21 3.1875C21 3.18778 21 3.18811 21 3.18839V4.3125C21 4.51927 20.8318 4.6875 20.625 4.6875C20.4182 4.6875 20.25 4.51927 20.25 4.3125V2.0625ZM3.375 1.6875C3.58177 1.6875 3.75 1.85573 3.75 2.0625V4.3125C3.75 4.51927 3.58177 4.6875 3.375 4.6875C3.16823 4.6875 3 4.51927 3 4.3125V3.18797C3 3.18783 3 3.18764 3 3.1875C3 3.18736 3 3.18722 3 3.18703V2.0625C3 1.85573 3.16823 1.6875 3.375 1.6875ZM22.125 22.3125H1.875C1.25466 22.3125 0.75 21.8078 0.75 21.1875V6.9375H18.75C18.9571 6.9375 19.125 6.76959 19.125 6.5625C19.125 6.35541 18.9571 6.1875 18.75 6.1875H0.75V4.6875C0.75 4.06716 1.25466 3.5625 1.875 3.5625H2.25V4.3125C2.25 4.93284 2.75466 5.4375 3.375 5.4375C3.99534 5.4375 4.5 4.93284 4.5 4.3125V3.5625H19.5V4.3125C19.5 4.93284 20.0047 5.4375 20.625 5.4375C21.2453 5.4375 21.75 4.93284 21.75 4.3125V3.5625H22.125C22.7453 3.5625 23.25 4.06716 23.25 4.6875V6.1875H22.5C22.2929 6.1875 22.125 6.35541 22.125 6.5625C22.125 6.76959 22.2929 6.9375 22.5 6.9375H23.25V21.1875C23.25 21.8078 22.7453 22.3125 22.125 22.3125Z" fill="black"/>
<path d="M21 6.1875H20.25C20.0429 6.1875 19.875 6.35541 19.875 6.5625C19.875 6.76959 20.0429 6.9375 20.25 6.9375H21C21.2071 6.9375 21.375 6.76959 21.375 6.5625C21.375 6.35541 21.2071 6.1875 21 6.1875Z" fill="black"/>
<path d="M9.44748 11.8952L11.5148 9.82786C11.5236 9.81905 11.532 9.80981 11.5399 9.80016C11.5433 9.79608 11.5461 9.79177 11.5493 9.78759C11.5535 9.78202 11.5578 9.77653 11.5617 9.77067C11.5652 9.76552 11.5682 9.76012 11.5714 9.75483C11.5745 9.74967 11.5777 9.74461 11.5806 9.73927C11.5835 9.73373 11.5861 9.72802 11.5887 9.72234C11.5913 9.71695 11.594 9.71161 11.5963 9.70608C11.5986 9.70055 11.6004 9.69483 11.6025 9.68916C11.6046 9.6833 11.6068 9.67744 11.6086 9.67144C11.6104 9.66572 11.6116 9.65995 11.6131 9.65419C11.6146 9.64809 11.6163 9.64209 11.6176 9.63586C11.6189 9.62911 11.6197 9.62227 11.6206 9.61547C11.6214 9.61017 11.6224 9.60497 11.6229 9.59963C11.6254 9.57497 11.6254 9.55017 11.6229 9.52552C11.6224 9.52017 11.6214 9.51497 11.6206 9.50967C11.6197 9.50287 11.6189 9.49603 11.6176 9.48928C11.6163 9.48309 11.6146 9.47705 11.6131 9.47095C11.6116 9.46519 11.6104 9.45937 11.6086 9.4537C11.6068 9.4477 11.6046 9.44189 11.6025 9.43598C11.6004 9.43031 11.5986 9.42464 11.5963 9.41906C11.594 9.41348 11.5913 9.40819 11.5887 9.4028C11.5861 9.39712 11.5835 9.39141 11.5806 9.38587C11.5777 9.38053 11.5745 9.37547 11.5714 9.37031C11.5682 9.36502 11.5652 9.35962 11.5617 9.35447C11.5578 9.34866 11.5535 9.34317 11.5493 9.33755C11.5462 9.33337 11.5433 9.32906 11.5399 9.32498C11.5242 9.30581 11.5066 9.28823 11.4874 9.27253C11.4835 9.2693 11.4794 9.26653 11.4753 9.26348C11.4696 9.25912 11.4639 9.25472 11.4579 9.25069C11.4529 9.24731 11.4477 9.24445 11.4426 9.24136C11.4372 9.23817 11.432 9.2348 11.4265 9.23184C11.4211 9.22898 11.4157 9.22659 11.4103 9.22402C11.4046 9.22134 11.399 9.21848 11.3932 9.21609C11.388 9.21394 11.3826 9.2122 11.3773 9.21028C11.3711 9.20803 11.3649 9.20564 11.3586 9.20372C11.3533 9.20212 11.3479 9.20095 11.3426 9.19959C11.3361 9.19795 11.3296 9.19613 11.323 9.19481C11.3169 9.19359 11.3108 9.19289 11.3046 9.192C11.2987 9.19111 11.2928 9.18998 11.2867 9.18942C11.2758 9.18834 11.2649 9.18787 11.254 9.18778C11.2526 9.18778 11.2512 9.18759 11.2498 9.18759H7.12501C6.91791 9.18759 6.75001 9.3555 6.75001 9.56259C6.75001 9.76969 6.91791 9.93759 7.12501 9.93759H10.3445L8.35969 11.9224C8.35088 11.9312 8.34254 11.9405 8.33462 11.9501C8.33124 11.9542 8.32838 11.9585 8.32519 11.9627C8.32098 11.9683 8.31666 11.9737 8.31277 11.9796C8.3093 11.9848 8.3063 11.9902 8.30312 11.9955C8.30002 12.0006 8.29679 12.0057 8.29393 12.011C8.29098 12.0165 8.28849 12.0222 8.28582 12.0278C8.28324 12.0333 8.28052 12.0386 8.27823 12.0442C8.27593 12.0498 8.2741 12.0554 8.27208 12.061C8.26998 12.0669 8.26768 12.0728 8.26585 12.0788C8.26412 12.0846 8.26285 12.0903 8.2614 12.0961C8.25985 12.1022 8.25816 12.1082 8.25694 12.1144C8.25559 12.1212 8.25479 12.128 8.25385 12.1348C8.2531 12.1401 8.25207 12.1453 8.25155 12.1507C8.24912 12.1753 8.24912 12.2001 8.25155 12.2248C8.25207 12.2301 8.2531 12.2353 8.25385 12.2406C8.25484 12.2474 8.25563 12.2542 8.25694 12.261C8.25816 12.2672 8.2599 12.2732 8.2614 12.2793C8.26285 12.2851 8.26412 12.2909 8.26585 12.2966C8.26768 12.3026 8.26998 12.3085 8.27208 12.3144C8.2741 12.32 8.27593 12.3256 8.27823 12.3312C8.28052 12.3367 8.28324 12.3421 8.28582 12.3476C8.28849 12.3532 8.29098 12.3589 8.29393 12.3644C8.29679 12.3697 8.30002 12.3748 8.30312 12.38C8.3063 12.3853 8.3093 12.3907 8.31277 12.3958C8.31666 12.4016 8.32098 12.4071 8.32519 12.4127C8.32834 12.4169 8.33124 12.4212 8.33462 12.4253C8.35032 12.4445 8.3679 12.462 8.38707 12.4777C8.39101 12.481 8.39513 12.4838 8.39916 12.4868C8.40493 12.4912 8.41055 12.4956 8.41655 12.4996C8.42162 12.503 8.42687 12.5059 8.43202 12.509C8.43732 12.5122 8.44252 12.5155 8.44801 12.5184C8.4534 12.5213 8.45898 12.5237 8.46446 12.5263C8.47004 12.5289 8.47552 12.5317 8.48124 12.5341C8.48663 12.5363 8.49212 12.5381 8.49755 12.54C8.50365 12.5422 8.50965 12.5446 8.51588 12.5465C8.52137 12.5481 8.52694 12.5493 8.53248 12.5507C8.53876 12.5523 8.54499 12.5541 8.55141 12.5554C8.55793 12.5567 8.56449 12.5574 8.57105 12.5584C8.57659 12.5592 8.58202 12.5603 8.58765 12.5608C8.59993 12.562 8.6123 12.5626 8.62463 12.5626C10.4856 12.5626 11.9996 14.0767 11.9996 15.9376C11.9996 17.7986 10.4856 19.3126 8.62463 19.3126C7.73593 19.3126 6.89701 18.9701 6.26241 18.3482C6.11452 18.2032 5.87705 18.2056 5.73212 18.3535C5.58713 18.5014 5.58952 18.7388 5.73746 18.8838C6.51305 19.644 7.5384 20.0626 8.62463 20.0626C10.8991 20.0626 12.7496 18.2122 12.7496 15.9376C12.7497 13.9448 11.3291 12.2776 9.44748 11.8952Z" fill="black"/>
<path d="M16.4981 9.52561C16.4976 9.52027 16.4966 9.51506 16.4958 9.50977C16.4948 9.50297 16.4941 9.49612 16.4927 9.48937C16.4915 9.48319 16.4898 9.47714 16.4883 9.47105C16.4868 9.46528 16.4856 9.45947 16.4838 9.4538C16.482 9.4478 16.4798 9.44198 16.4776 9.43608C16.4756 9.43041 16.4738 9.42473 16.4715 9.41916C16.4692 9.41358 16.4664 9.40828 16.4639 9.40289C16.4612 9.39722 16.4587 9.3915 16.4558 9.38597C16.4529 9.38062 16.4497 9.37556 16.4466 9.37041C16.4434 9.36511 16.4404 9.35972 16.4369 9.35456C16.433 9.34875 16.4287 9.34327 16.4245 9.33764C16.4213 9.33347 16.4184 9.32916 16.4151 9.32508C16.3994 9.30591 16.3818 9.28833 16.3626 9.27262C16.3587 9.26939 16.3546 9.26662 16.3505 9.26358C16.3448 9.25922 16.3391 9.25481 16.3331 9.25078C16.3281 9.24741 16.3229 9.24455 16.3178 9.24145C16.3124 9.23827 16.3072 9.23489 16.3017 9.23194C16.2963 9.22908 16.2909 9.22669 16.2855 9.22411C16.2798 9.22144 16.2742 9.21858 16.2684 9.21619C16.2631 9.21403 16.2578 9.2123 16.2525 9.21037C16.2463 9.20812 16.2401 9.20573 16.2338 9.20381C16.2285 9.20222 16.2231 9.20105 16.2178 9.19969C16.2113 9.19805 16.2048 9.19622 16.1982 9.19491C16.1921 9.19369 16.1859 9.19298 16.1798 9.19209C16.1738 9.1912 16.1679 9.19008 16.1619 9.18952C16.151 9.18844 16.1401 9.18797 16.1292 9.18787C16.1278 9.18787 16.1264 9.18769 16.125 9.18769C16.1236 9.18769 16.1222 9.18787 16.1208 9.18787C16.1099 9.18801 16.099 9.18844 16.0881 9.18952C16.0821 9.19008 16.0762 9.1912 16.0702 9.19209C16.0641 9.19298 16.0579 9.19369 16.0518 9.19491C16.0452 9.19622 16.0388 9.198 16.0322 9.19969C16.0269 9.20105 16.0216 9.20222 16.0163 9.20381C16.0099 9.20573 16.0037 9.20812 15.9975 9.21037C15.9922 9.2123 15.9868 9.21403 15.9816 9.21619C15.9758 9.21858 15.9702 9.22144 15.9646 9.22411C15.9591 9.22669 15.9537 9.22908 15.9483 9.23194C15.9428 9.23489 15.9376 9.23822 15.9323 9.24145C15.9271 9.24455 15.9219 9.24745 15.9169 9.25078C15.9109 9.25481 15.9052 9.25922 15.8995 9.26358C15.8955 9.26662 15.8913 9.26939 15.8874 9.27262C15.8777 9.28055 15.8685 9.28889 15.8596 9.2977L13.9848 11.1725C13.8383 11.319 13.8383 11.5564 13.9848 11.7028C14.0581 11.776 14.154 11.8126 14.25 11.8126C14.346 11.8126 14.442 11.776 14.5152 11.7028L15.75 10.468V19.6877C15.75 19.8948 15.9179 20.0627 16.125 20.0627C16.3321 20.0627 16.5 19.8948 16.5 19.6877V9.56278C16.5 9.55036 16.4993 9.53798 16.4981 9.52561Z" fill="black"/>
</g>
<defs>
<clipPath id="clip0_6_373">
<rect width="24" height="24" fill="white"/>
</clipPath>
</defs>
</svg>
